<svg width="18" height="18" viewBox="0 0 18 18" fill="none" xmlns="http://www.w3.org/2000/svg">
<g clip-path="url(#clip0_29_53)">
<path d="M8.86298 6.14929L11.4397 8.72598L11.4519 8.59101C11.4519 7.23722 10.3517 6.13702 8.99795 6.13702L8.86298 6.14929Z" fill="black"/>
<path d="M8.99795 4.50091C11.2556 4.50091 13.0879 6.33323 13.0879 8.5909C13.0879 9.11851 12.9816 9.62158 12.7976 10.0837L15.1902 12.4764C16.4254 11.4457 17.3988 10.1124 18 8.5909C16.5808 4.99991 13.092 2.45593 8.99798 2.45593C7.85278 2.45593 6.75669 2.66042 5.73828 3.02852L7.50515 4.79129C7.96727 4.61134 8.47034 4.50091 8.99795 4.50091Z" fill="black"/>
<path d="M0.817983 2.27201L2.68301 4.13704L3.05521 4.50924C1.70552 5.56446 0.638037 6.96733 0 8.59103C1.41515 12.182 4.90798 14.726 8.99797 14.726C10.2659 14.726 11.4765 14.4806 12.5849 14.0348L12.9326 14.3824L15.317 16.771L16.36 15.7321L1.86093 1.22906L0.817983 2.27201ZM5.34153 6.79145L6.60533 8.05525C6.56852 8.23114 6.54398 8.40698 6.54398 8.59103C6.54398 9.94482 7.64417 11.045 8.99797 11.045C9.18202 11.045 9.3579 11.0205 9.52968 10.9837L10.7935 12.2475C10.2495 12.5174 9.64421 12.681 8.99797 12.681C6.7403 12.681 4.90798 10.8487 4.90798 8.59103C4.90798 7.94482 5.07159 7.33949 5.34153 6.79145Z" fill="black"/>
</g>
<defs>
<clipPath id="clip0_29_53">
<rect width="18" height="18" fill="white"/>
</clipPath>
</defs>
</svg>
