<svg width="25" height="25" viewBox="0 0 25 25" fill="none" xmlns="http://www.w3.org/2000/svg">
<path d="M20.3809 10.9375H4.61914C3.79395 10.9375 3.125 11.6357 3.125 12.5C3.125 13.3643 3.79395 14.0625 4.61914 14.0625H20.3809C21.2061 14.0625 21.875 13.3643 21.875 12.5C21.875 11.6357 21.2061 10.9375 20.3809 10.9375ZM20.3809 4.6875H4.61914C3.79395 4.6875 3.125 5.38574 3.125 6.25C3.125 7.11426 3.79395 7.8125 4.61914 7.8125H20.3809C21.2061 7.8125 21.875 7.11426 21.875 6.25C21.875 5.38574 21.2061 4.6875 20.3809 4.6875ZM20.3809 17.1875H4.61914C3.79395 17.1875 3.125 17.8857 3.125 18.75C3.125 19.6143 3.79395 20.3125 4.61914 20.3125H20.3809C21.2061 20.3125 21.875 19.6143 21.875 18.75C21.875 17.8857 21.2061 17.1875 20.3809 17.1875Z" fill="black"/>
</svg>
